<?xml version="1.0" encoding="UTF-8" standalone="no"?><svg xmlns="http://www.w3.org/2000/svg" xmlns:xlink="http://www.w3.org/1999/xlink" contentScriptType="application/ecmascript" contentStyleType="text/css" height="813px" preserveAspectRatio="none" style="width:1320px;height:813px;" version="1.1" viewBox="0 0 1320 813" width="1320px" zoomAndPan="magnify"><defs/><g><!--MD5=[84540e732cc899d4c521b13da8a22fff]
class -233011503--><rect codeLine="9" fill="#EEEEEE" height="41.4453" id="-233011503" style="stroke:#008000;stroke-width:1.5;" width="212" x="253" y="166"/><text fill="#0000FF" font-family="sans-serif" font-size="12" font-style="italic" lengthAdjust="spacingAndGlyphs" textLength="210" x="254" y="183.457">«organizational entity, object, human»</text><text fill="#000000" font-family="sans-serif" font-size="13" lengthAdjust="spacingAndGlyphs" textLength="63" x="327.5" y="199.5889">person (...)</text><!--MD5=[190e492a57859a9c10ad94ef9e0726d0]
class 1188159182--><rect codeLine="11" fill="#FEFECE" height="26.3516" id="1188159182" style="stroke:#000000;stroke-width:1.5;" width="119" x="7" y="259.5"/><text fill="#000000" font-family="sans-serif" font-size="13" lengthAdjust="spacingAndGlyphs" textLength="113" x="10" y="277.9951">information process</text><!--MD5=[fd7288cd23a5b0ad9d7fe4925b81ab2a]
class 1188247841--><rect codeLine="13" fill="#FEFECE" height="26.3516" id="1188247841" style="stroke:#000000;stroke-width:1.5;" width="27" x="706.5" y="658.5"/><text fill="#000000" font-family="sans-serif" font-size="13" lengthAdjust="spacingAndGlyphs" textLength="21" x="709.5" y="676.9951">end</text><!--MD5=[d13ab243e90cbd2a2065bf42ac8d6fff]
class 1188248618--><rect codeLine="15" fill="#FEFECE" height="26.3516" id="1188248618" style="stroke:#000000;stroke-width:1.5;" width="32" x="704" y="724.5"/><text fill="#000000" font-family="sans-serif" font-size="13" lengthAdjust="spacingAndGlyphs" textLength="26" x="707" y="742.9951">start</text><!--MD5=[5e99038d5aed8ca5089ec1a1531b76f2]
class 1188248766--><rect codeLine="17" fill="#FEFECE" height="41.4453" id="1188248766" style="stroke:#000000;stroke-width:1.5;" width="101" x="16" y="577"/><text fill="#0000FF" font-family="sans-serif" font-size="12" font-style="italic" lengthAdjust="spacingAndGlyphs" textLength="44" x="44.5" y="594.457">«event»</text><text fill="#000000" font-family="sans-serif" font-size="13" lengthAdjust="spacingAndGlyphs" textLength="95" x="19" y="610.5889">accomplishment</text><!--MD5=[51da00cf1d4a68a3290606c9a2a79d71]
class 1188248769--><rect codeLine="19" fill="#FEFECE" height="26.3516" id="1188248769" style="stroke:#000000;stroke-width:1.5;" width="35" x="49" y="658.5"/><text fill="#000000" font-family="sans-serif" font-size="13" lengthAdjust="spacingAndGlyphs" textLength="29" x="52" y="676.9951">state</text><!--MD5=[8ab84b97e5a10855a05cbd637268415b]
class 1188251493--><rect codeLine="21" fill="#FEFECE" height="26.3516" id="1188251493" style="stroke:#000000;stroke-width:1.5;" width="46" x="43.5" y="724.5"/><text fill="#000000" font-family="sans-serif" font-size="13" lengthAdjust="spacingAndGlyphs" textLength="40" x="46.5" y="742.9951">activity</text><!--MD5=[13acf43d9f57c65683a7846628d0bbde]
class 1482878952--><rect codeLine="23" fill="#FEFECE" height="41.4453" id="1482878952" style="stroke:#000000;stroke-width:1.5;" width="123" x="658.5" y="251"/><text fill="#0000FF" font-family="sans-serif" font-size="12" font-style="italic" lengthAdjust="spacingAndGlyphs" textLength="121" x="659.5" y="268.457">«representation form»</text><text fill="#000000" font-family="sans-serif" font-size="13" lengthAdjust="spacingAndGlyphs" textLength="16" x="712" y="284.5889">file</text><!--MD5=[133b31812c28b46feba2d28e2412b176]
class 1482903159--><rect codeLine="25" fill="#FEFECE" height="41.4453" id="1482903159" style="stroke:#000000;stroke-width:1.5;" width="76" x="682" y="332"/><text fill="#0000FF" font-family="sans-serif" font-size="12" font-style="italic" lengthAdjust="spacingAndGlyphs" textLength="74" x="683" y="349.457">«description»</text><text fill="#000000" font-family="sans-serif" font-size="13" lengthAdjust="spacingAndGlyphs" textLength="53" x="693.5" y="365.5889">timebase</text><!--MD5=[a821a402f06ba48a85366bb3a5e6fe96]
class 1482907681--><rect codeLine="27" fill="#FEFECE" height="41.4453" id="1482907681" style="stroke:#000000;stroke-width:1.5;" width="106" x="667" y="413"/><text fill="#0000FF" font-family="sans-serif" font-size="12" font-style="italic" lengthAdjust="spacingAndGlyphs" textLength="82" x="679" y="430.457">«specification»</text><text fill="#000000" font-family="sans-serif" font-size="13" lengthAdjust="spacingAndGlyphs" textLength="100" x="670" y="446.5889">plan specification</text><!--MD5=[4259cd000ef84b3e0c69b81c382281b6]
class -843567371--><rect codeLine="29" fill="#FEFECE" height="41.4453" id="-843567371" style="stroke:#000000;stroke-width:1.5;" width="143" x="648.5" y="89"/><text fill="#0000FF" font-family="sans-serif" font-size="12" font-style="italic" lengthAdjust="spacingAndGlyphs" textLength="141" x="649.5" y="106.457">«general agent role, role»</text><text fill="#000000" font-family="sans-serif" font-size="13" lengthAdjust="spacingAndGlyphs" textLength="57" x="691.5" y="122.5889">agent role</text><!--MD5=[22000c05b224254186c3627cab1d5bbe]
class -843563681--><rect codeLine="31" fill="#FEFECE" height="41.4453" id="-843563681" style="stroke:#000000;stroke-width:1.5;" width="206" x="617" y="170"/><text fill="#0000FF" font-family="sans-serif" font-size="12" font-style="italic" lengthAdjust="spacingAndGlyphs" textLength="204" x="618" y="187.457">«processing role, general agent role»</text><text fill="#000000" font-family="sans-serif" font-size="13" lengthAdjust="spacingAndGlyphs" textLength="109" x="665.5" y="203.5889">software agent role</text><!--MD5=[26372dfb4e652ed8b90352b96945d22a]
class -978028018--><rect codeLine="33" fill="#FEFECE" height="41.4453" id="-978028018" style="stroke:#000000;stroke-width:1.5;" width="66" x="1247" y="130"/><text fill="#0000FF" font-family="sans-serif" font-size="12" font-style="italic" lengthAdjust="spacingAndGlyphs" textLength="43" x="1258.5" y="147.457">«entity»</text><text fill="#000000" font-family="sans-serif" font-size="13" lengthAdjust="spacingAndGlyphs" textLength="60" x="1250" y="163.5889">continuant</text><!--MD5=[ac08bae09c66374e137768b448b9d1d6]
class -978028017--><rect codeLine="35" fill="#FEFECE" height="41.4453" id="-978028017" style="stroke:#000000;stroke-width:1.5;" width="60" x="1250" y="754"/><text fill="#0000FF" font-family="sans-serif" font-size="12" font-style="italic" lengthAdjust="spacingAndGlyphs" textLength="43" x="1258.5" y="771.457">«entity»</text><text fill="#000000" font-family="sans-serif" font-size="13" lengthAdjust="spacingAndGlyphs" textLength="54" x="1253" y="787.5889">occurrent</text><!--MD5=[23f7c4244fa1b58e3b16dd5fd6fc5439]
class -978027984--><rect codeLine="37" fill="#FEFECE" height="26.3516" id="-978027984" style="stroke:#000000;stroke-width:1.5;" width="52" x="333" y="658.5"/><text fill="#000000" font-family="sans-serif" font-size="13" lengthAdjust="spacingAndGlyphs" textLength="46" x="336" y="676.9951">process</text><!--MD5=[e442664e165b0d21f7dfd68edbc53921]
class -978027922--><rect codeLine="39" fill="#FEFECE" height="26.3516" id="-978027922" style="stroke:#000000;stroke-width:1.5;" width="109" x="1052.5" y="724.5"/><text fill="#000000" font-family="sans-serif" font-size="13" lengthAdjust="spacingAndGlyphs" textLength="103" x="1055.5" y="742.9951">process boundary</text><!--MD5=[ea4a67cee44b3bfd50a08f0db84fe378]
class -978027896--><rect codeLine="41" fill="#FEFECE" height="41.4453" id="-978027896" style="stroke:#000000;stroke-width:1.5;" width="145" x="843" y="7"/><text fill="#0000FF" font-family="sans-serif" font-size="12" font-style="italic" lengthAdjust="spacingAndGlyphs" textLength="143" x="844" y="24.457">«independent continuant»</text><text fill="#000000" font-family="sans-serif" font-size="13" lengthAdjust="spacingAndGlyphs" textLength="82" x="874.5" y="40.5889">material entity</text><!--MD5=[8357aede3867da5ab8ec1587ecdab1a2]
class -821319702--><rect codeLine="43" fill="#EEEEEE" height="41.4453" id="-821319702" style="stroke:#008000;stroke-width:1.5;" width="111" x="303.5" y="292"/><text fill="#0000FF" font-family="sans-serif" font-size="12" font-style="italic" lengthAdjust="spacingAndGlyphs" textLength="109" x="304.5" y="309.457">«plan specification»</text><text fill="#000000" font-family="sans-serif" font-size="13" lengthAdjust="spacingAndGlyphs" textLength="72" x="323" y="325.5889">software (...)</text><!--MD5=[bf507d21c79fd45cba146cbcf4fac949]
class 310781973--><rect codeLine="45" fill="#FEFECE" height="41.4453" id="310781973" style="stroke:#000000;stroke-width:1.5;" width="198" x="1008" y="332"/><text fill="#0000FF" font-family="sans-serif" font-size="12" font-style="italic" lengthAdjust="spacingAndGlyphs" textLength="196" x="1009" y="349.457">«generically dependent continuant»</text><text fill="#000000" font-family="sans-serif" font-size="13" lengthAdjust="spacingAndGlyphs" textLength="146" x="1034" y="365.5889">information content entity</text><!--MD5=[ea203744089fd6d71d12c6b63bf27f2a]
class 177287031--><rect codeLine="47" fill="#FEFECE" height="26.3516" id="177287031" style="stroke:#000000;stroke-width:1.5;" width="101" x="16" y="432.5"/><text fill="#000000" font-family="sans-serif" font-size="13" lengthAdjust="spacingAndGlyphs" textLength="95" x="19" y="450.9951">planned process</text><!--MD5=[13942a80fbff64e130c605e08bdf54e6]
class 2080316243--><rect codeLine="49" fill="#FEFECE" height="41.4453" id="2080316243" style="stroke:#000000;stroke-width:1.5;" width="86" x="677" y="577"/><text fill="#0000FF" font-family="sans-serif" font-size="12" font-style="italic" lengthAdjust="spacingAndGlyphs" textLength="84" x="678" y="594.457">«classification»</text><text fill="#000000" font-family="sans-serif" font-size="13" lengthAdjust="spacingAndGlyphs" textLength="78" x="681" y="610.5889">quantity  kind</text><!--MD5=[ab64f8d28a1e17d52dc8928121e7c9e3]
class 400355864--><rect codeLine="51" fill="#FEFECE" height="126.625" id="400355864" style="stroke:#000000;stroke-width:1.5;" width="189" x="264.5" y="472"/><text fill="#0000FF" font-family="sans-serif" font-size="12" font-style="italic" lengthAdjust="spacingAndGlyphs" textLength="155" x="281.5" y="489.457">«quality quantification facet»</text><text fill="#000000" font-family="sans-serif" font-size="13" lengthAdjust="spacingAndGlyphs" textLength="21" x="348.5" y="505.5889">unit</text><line style="stroke:#000000;stroke-width:1.5;" x1="265.5" x2="452.5" y1="513.4453" y2="513.4453"/><ellipse cx="275.5" cy="524.4453" fill="none" rx="3" ry="3" style="stroke:#038048;stroke-width:1.0;"/><text fill="#4169E1" font-family="sans-serif" font-size="11" lengthAdjust="spacingAndGlyphs" textLength="95" x="284.5" y="528.8643">conversionMultiplier</text><text fill="#000000" font-family="sans-serif" font-size="11" lengthAdjust="spacingAndGlyphs" textLength="32" x="385.5" y="528.8643">double</text><text fill="#008000" font-family="sans-serif" font-size="11" lengthAdjust="spacingAndGlyphs" textLength="24" x="423.5" y="528.8643">[0..1]</text><ellipse cx="275.5" cy="538.2813" fill="none" rx="3" ry="3" style="stroke:#038048;stroke-width:1.0;"/><text fill="#4169E1" font-family="sans-serif" font-size="11" lengthAdjust="spacingAndGlyphs" textLength="85" x="284.5" y="542.7002">conversionOffset</text><text fill="#000000" font-family="sans-serif" font-size="11" lengthAdjust="spacingAndGlyphs" textLength="32" x="375.5" y="542.7002">double</text><text fill="#008000" font-family="sans-serif" font-size="11" lengthAdjust="spacingAndGlyphs" textLength="24" x="413.5" y="542.7002">[0..1]</text><ellipse cx="275.5" cy="552.1172" fill="none" rx="3" ry="3" style="stroke:#038048;stroke-width:1.0;"/><text fill="#4169E1" font-family="sans-serif" font-size="11" lengthAdjust="spacingAndGlyphs" textLength="53" x="284.5" y="556.5361">description</text><text fill="#000000" font-family="sans-serif" font-size="11" lengthAdjust="spacingAndGlyphs" textLength="27" x="343.5" y="556.5361">string</text><text fill="#008000" font-family="sans-serif" font-size="11" lengthAdjust="spacingAndGlyphs" textLength="24" x="376.5" y="556.5361">[0..1]</text><ellipse cx="275.5" cy="565.9531" fill="none" rx="3" ry="3" style="stroke:#038048;stroke-width:1.0;"/><text fill="#4169E1" font-family="sans-serif" font-size="11" lengthAdjust="spacingAndGlyphs" textLength="34" x="284.5" y="570.3721">symbol</text><text fill="#000000" font-family="sans-serif" font-size="11" lengthAdjust="spacingAndGlyphs" textLength="27" x="324.5" y="570.3721">string</text><text fill="#008000" font-family="sans-serif" font-size="11" lengthAdjust="spacingAndGlyphs" textLength="24" x="357.5" y="570.3721">[0..1]</text><line style="stroke:#000000;stroke-width:1.5;" x1="265.5" x2="452.5" y1="576.7891" y2="576.7891"/><ellipse cx="275.5" cy="587.7891" fill="#84BE84" rx="3" ry="3" style="stroke:#038048;stroke-width:1.0;"/><text fill="#4169E1" font-family="sans-serif" font-size="11" lengthAdjust="spacingAndGlyphs" textLength="34" x="284.5" y="592.208">symbol</text><text fill="#000000" font-family="sans-serif" font-size="11" lengthAdjust="spacingAndGlyphs" textLength="27" x="324.5" y="592.208">string</text><text fill="#008000" font-family="sans-serif" font-size="11" lengthAdjust="spacingAndGlyphs" textLength="12" x="357.5" y="592.208">[1]</text><!--MD5=[94d1aaa74f0ca319a65ed734e939e76d]
link -233011503 to -978027896--><path codeLine="58" d="M387.53,165.95 C412.05,148.44 449.46,123.61 485,107.5 C594.6,57.84 733.3,39 822.95,31.86 " fill="none" id="-233011503-to--978027896" style="stroke:#9999FF;stroke-width:1.0;"/><polygon fill="none" points="822.51,24.88,842.97,30.4,823.53,38.84,822.51,24.88" style="stroke:#9999FF;stroke-width:1.0;"/><!--MD5=[884798ec1794cd7b8c9ad672bdd6cc8c]
link 1188159182 to -978027984--><path codeLine="59" d="M99.09,285.55 C142.51,304.18 217.09,338.84 233,363.5 C263.94,411.45 221.04,572.23 253,619.5 C266.97,640.17 291.65,652.97 313.58,660.69 " fill="none" id="1188159182-to--978027984" style="stroke:#0000FF;stroke-width:1.0;"/><polygon fill="none" points="315.81,654.06,332.93,666.54,311.76,667.46,315.81,654.06" style="stroke:#0000FF;stroke-width:1.0;"/><!--MD5=[4263b7e8a98827b041bb585c4757c16e]
link 1188247841 to -978027922--><path codeLine="60" d="M733.6,672.58 C772.02,676 890.97,687.47 988,706.5 C1005.8,709.99 1024.89,714.61 1042.43,719.22 " fill="none" id="1188247841-to--978027922" style="stroke:#0000FF;stroke-width:1.0;"/><polygon fill="none" points="1044.29,712.47,1061.76,724.46,1040.63,725.99,1044.29,712.47" style="stroke:#0000FF;stroke-width:1.0;"/><!--MD5=[78a0a28f75186dbd1155b3db4c96b534]
link 1188248618 to -978027922--><path codeLine="61" d="M736.09,737.5 C784.63,737.5 938.94,737.5 1032.23,737.5 " fill="none" id="1188248618-to--978027922" style="stroke:#0000FF;stroke-width:1.0;"/><polygon fill="none" points="1032.28,730.5,1052.28,737.5,1032.28,744.5,1032.28,730.5" style="stroke:#0000FF;stroke-width:1.0;"/><!--MD5=[17049a466dc1258348a97440dcb91c64]
link 1188248766 to -978027984--><path codeLine="62" d="M117.11,610.14 C172.21,624.17 260.36,646.63 313.37,660.13 " fill="none" id="1188248766-to--978027984" style="stroke:#9999FF;stroke-width:1.0;"/><polygon fill="none" points="315.13,653.35,332.78,665.08,311.67,666.92,315.13,653.35" style="stroke:#9999FF;stroke-width:1.0;"/><!--MD5=[d713a41f96e295334f994be415b38d28]
link 1188248769 to -978027984--><path codeLine="63" d="M84.37,671.5 C128.22,671.5 246.89,671.5 312.63,671.5 " fill="none" id="1188248769-to--978027984" style="stroke:#0000FF;stroke-width:1.0;"/><polygon fill="none" points="312.71,664.5,332.71,671.5,312.71,678.5,312.71,664.5" style="stroke:#0000FF;stroke-width:1.0;"/><!--MD5=[f02fbfdb8f66e948c8f5a04df1e48f71]
link 1188251493 to -978027984--><path codeLine="64" d="M89.81,732.43 C137.46,721.61 249.92,696.06 313.03,681.72 " fill="none" id="1188251493-to--978027984" style="stroke:#0000FF;stroke-width:1.0;"/><polygon fill="none" points="311.69,674.84,332.74,677.24,314.79,688.5,311.69,674.84" style="stroke:#0000FF;stroke-width:1.0;"/><!--MD5=[4186385e82fb9c6b7132f69c6e0cefcf]
link 1482878952 to 310781973--><path codeLine="65" d="M781.7,281.59 C835.98,290.91 917.6,305.68 988,321.5 C995.63,323.21 1003.51,325.08 1011.41,327.01 " fill="none" id="1482878952-to-310781973" style="stroke:#9999FF;stroke-width:1.0;"/><polygon fill="none" points="1013.28,320.27,1030.97,331.93,1009.87,333.84,1013.28,320.27" style="stroke:#9999FF;stroke-width:1.0;"/><!--MD5=[475e250cca5eb0fda4c30ea13b68cf4b]
link 1482903159 to 310781973--><path codeLine="66" d="M758.27,352.5 C810.78,352.5 908.93,352.5 987.6,352.5 " fill="none" id="1482903159-to-310781973" style="stroke:#9999FF;stroke-width:1.0;"/><polygon fill="none" points="987.66,345.5,1007.66,352.5,987.66,359.5,987.66,345.5" style="stroke:#9999FF;stroke-width:1.0;"/><!--MD5=[b593e328b7d4a84cb2f82f7a8613ae5d]
link 1482907681 to 310781973--><path codeLine="67" d="M773.32,422.49 C828.39,410.91 916.87,392.29 988.75,377.17 " fill="none" id="1482907681-to-310781973" style="stroke:#9999FF;stroke-width:1.0;"/><polygon fill="none" points="987.52,370.27,1008.54,373.01,990.41,383.97,987.52,370.27" style="stroke:#9999FF;stroke-width:1.0;"/><!--MD5=[6893e382008c61d6a86fe3bbfae621f4]
link -843567371 to -978028018--><path codeLine="68" d="M791.6,107.48 C889.96,105.92 1073.45,107.52 1227,134.5 C1227.1,134.52 1227.2,134.54 1227.31,134.55 " fill="none" id="-843567371-to--978028018" style="stroke:#9999FF;stroke-width:1.0;"/><polygon fill="none" points="1229.04,127.77,1246.85,139.25,1225.77,141.38,1229.04,127.77" style="stroke:#9999FF;stroke-width:1.0;"/><!--MD5=[7a2b2f098f6b79387fc7c9cb5cf80791]
link -843563681 to -978028018--><path codeLine="69" d="M823.02,183.19 C942.25,174.64 1134.91,160.83 1226.89,154.24 " fill="none" id="-843563681-to--978028018" style="stroke:#9999FF;stroke-width:1.0;"/><polygon fill="none" points="1226.53,147.24,1246.98,152.8,1227.53,161.21,1226.53,147.24" style="stroke:#9999FF;stroke-width:1.0;"/><!--MD5=[874a77b469f1310444f1dce6d94248cc]
link -843563681 to 310781973--><path codeLine="70" d="M805.3,211.05 C858.98,225.65 929.22,247.6 988,275.5 C1014.03,287.85 1041.08,305.14 1062.71,320.2 " fill="none" id="-843563681-to-310781973" style="stroke:#9999FF;stroke-width:1.0;"/><polygon fill="none" points="1066.91,314.6,1079.11,331.92,1058.77,325.99,1066.91,314.6" style="stroke:#9999FF;stroke-width:1.0;"/><!--MD5=[5c81e9852c41d852476da6670f0fa8d3]
link -978027984 to -978028017--><path codeLine="71" d="M383.85,684.64 C428.13,708.14 526.8,756.22 617,770.5 C843.45,806.36 1118.94,788.76 1229.56,779.24 " fill="none" id="-978027984-to--978028017" style="stroke:#0000FF;stroke-width:1.0;"/><polygon fill="none" points="1229.16,772.25,1249.71,777.44,1230.41,786.2,1229.16,772.25" style="stroke:#0000FF;stroke-width:1.0;"/><!--MD5=[26b25ce5be3d2b60b224af7bcbf1f466]
link -978027922 to -978028017--><path codeLine="72" d="M1161.64,749.11 C1183.53,753.84 1208.67,759.28 1230.06,763.91 " fill="none" id="-978027922-to--978028017" style="stroke:#0000FF;stroke-width:1.0;"/><polygon fill="none" points="1231.86,757.14,1249.93,768.21,1228.9,770.82,1231.86,757.14" style="stroke:#0000FF;stroke-width:1.0;"/><!--MD5=[c19597675da65abc470b735679771f1f]
link -978027896 to -978028018--><path codeLine="73" d="M988.13,24.24 C1054.76,24.5 1154.41,33.59 1227,78.5 C1240.37,86.77 1251.34,99.87 1259.7,112.65 " fill="none" id="-978027896-to--978028018" style="stroke:#9999FF;stroke-width:1.0;"/><polygon fill="none" points="1265.75,109.14,1269.75,129.95,1253.65,116.18,1265.75,109.14" style="stroke:#9999FF;stroke-width:1.0;"/><!--MD5=[4ec4b324312c6de11dd4d37ebf4fd25c]
link -821319702 to 1482907681--><path codeLine="74" d="M408.61,333.07 C431.6,342.51 459.53,353.56 485,362.5 C538.86,381.4 600.69,400.03 647.26,413.47 " fill="none" id="-821319702-to-1482907681" style="stroke:#9999FF;stroke-width:1.0;"/><polygon fill="none" points="649.23,406.75,666.54,418.98,645.38,420.21,649.23,406.75" style="stroke:#9999FF;stroke-width:1.0;"/><!--MD5=[56850973789f09b83b2337a9c464adbc]
link 310781973 to -978028018--><path codeLine="75" d="M1128.58,331.56 C1152.95,306.41 1194.35,262.6 1227,222.5 C1235.94,211.51 1245.17,199.14 1253.31,187.79 " fill="none" id="310781973-to--978028018" style="stroke:#9999FF;stroke-width:1.0;"/><polygon fill="none" points="1247.8,183.46,1265.04,171.14,1259.25,191.52,1247.8,183.46" style="stroke:#9999FF;stroke-width:1.0;"/><!--MD5=[ae073c1a40d162d6c9abfee7949d8d06]
link 177287031 to -978027984--><path codeLine="76" d="M82.99,458.89 C112.8,484.84 179.9,544.12 233,597.5 C242.32,606.87 242.45,611.54 253,619.5 C271.54,633.49 294.42,645.34 314.09,654.18 " fill="none" id="177287031-to--978027984" style="stroke:#0000FF;stroke-width:1.0;"/><polygon fill="none" points="317.09,647.85,332.75,662.12,311.61,660.73,317.09,647.85" style="stroke:#0000FF;stroke-width:1.0;"/><!--MD5=[8a24c6b586391e15d72393d78509b009]
link 2080316243 to 310781973--><path codeLine="77" d="M763.41,599.55 C819.72,600.16 919.95,593.71 988,546.5 C1042.39,508.77 1076.19,437.08 1093.02,392.2 " fill="none" id="2080316243-to-310781973" style="stroke:#9999FF;stroke-width:1.0;"/><polygon fill="none" points="1086.49,389.67,1099.75,373.14,1099.69,394.33,1086.49,389.67" style="stroke:#9999FF;stroke-width:1.0;"/><!--MD5=[878b4002485a7a232052c78066f69455]
link 400355864 to 310781973--><path codeLine="78" d="M453.71,528.88 C547.98,520.88 697.03,504.6 823,474.5 C898.6,456.44 916.94,448.02 988,416.5 C1010.18,406.66 1033.84,394.24 1054.11,382.96 " fill="none" id="400355864-to-310781973" style="stroke:#9999FF;stroke-width:1.0;"/><polygon fill="none" points="1050.77,376.8,1071.62,373.03,1057.67,388.98,1050.77,376.8" style="stroke:#9999FF;stroke-width:1.0;"/><!--MD5=[a4b2cff1d83e1b66bb6ea766a629afc5]
link -233011503 to -843567371--><path codeLine="79" d="M454.86,165.99 C465.04,163.79 475.23,161.6 485,159.5 C537.9,148.13 597.55,135.39 643.38,125.61 " fill="none" id="-233011503-to--843567371" style="stroke:#999999;stroke-width:1.0;"/><polygon fill="#999999" points="648.34,124.56,638.7033,122.5269,643.4502,125.6037,640.3733,130.3506,648.34,124.56" style="stroke:#999999;stroke-width:1.0;"/><text fill="#999999" font-family="sans-serif" font-size="13" lengthAdjust="spacingAndGlyphs" textLength="46" x="518" y="131.9951">has role</text><text fill="#999999" font-family="sans-serif" font-size="13" lengthAdjust="spacingAndGlyphs" textLength="20" x="620.5568" y="140.2486">1..*</text><!--MD5=[0e99b5e324f429500eb9117196bc9a21]
link -233011503 to -843563681--><path codeLine="80" d="M465.29,187.67 C511.4,188.19 565.44,188.79 611.77,189.31 " fill="none" id="-233011503-to--843563681" style="stroke:#999999;stroke-width:1.0;"/><polygon fill="#999999" points="616.81,189.36,607.8563,185.2574,611.8103,189.3029,607.7649,193.2569,616.81,189.36" style="stroke:#999999;stroke-width:1.0;"/><text fill="#999999" font-family="sans-serif" font-size="13" lengthAdjust="spacingAndGlyphs" textLength="110" x="486" y="183.9951">has contextual role</text><text fill="#999999" font-family="sans-serif" font-size="13" lengthAdjust="spacingAndGlyphs" textLength="20" x="588.8513" y="203.3342">1..*</text><!--MD5=[82a7c4e5ab3b12288d3b6f30ab86300c]
link 1188159182 to -233011503--><path codeLine="81" d="M111.62,259.44 C157.23,245.94 229.24,224.62 283.66,208.51 " fill="none" id="1188159182-to--233011503" style="stroke:#008000;stroke-width:2.0;"/><polygon fill="#008000" points="288.53,207.06,278.7619,205.8014,283.7389,208.4902,281.0502,213.4672,288.53,207.06" style="stroke:#008000;stroke-width:2.0;"/><text fill="#008000" font-family="sans-serif" font-size="13" lengthAdjust="spacingAndGlyphs" textLength="85" x="147" y="219.9951">has participant</text><text fill="#008000" font-family="sans-serif" font-size="13" lengthAdjust="spacingAndGlyphs" textLength="27" x="236.8638" y="228.9308">1 (+)</text><!--MD5=[31a9e676fae7b0d2542e1abfa50b21ad]
link 1188159182 to -821319702--><path codeLine="82" d="M126.29,280.59 C176.3,287.48 247.81,297.33 298.12,304.26 " fill="none" id="1188159182-to--821319702" style="stroke:#008000;stroke-width:2.0;"/><polygon fill="#008000" points="303.23,304.96,294.863,299.7645,298.2772,304.2749,293.7668,307.6891,303.23,304.96" style="stroke:#008000;stroke-width:2.0;"/><text fill="#008000" font-family="sans-serif" font-size="13" lengthAdjust="spacingAndGlyphs" textLength="85" x="147" y="279.9951">has participant</text><text fill="#008000" font-family="sans-serif" font-size="13" lengthAdjust="spacingAndGlyphs" textLength="27" x="268.6536" y="318.5003">1 (+)</text><!--MD5=[1e146a9eed965ed69cc82b771da5c0ac]
link -978027984 to 1188247841--><path codeLine="83" d="M385.24,671.5 C453.74,671.5 641.9,671.5 700.99,671.5 " fill="none" id="-978027984-to-1188247841" style="stroke:#000000;stroke-width:1.0;"/><polygon fill="#000000" points="706.3,671.5,697.3,667.5,701.3,671.5,697.3,675.5,706.3,671.5" style="stroke:#000000;stroke-width:1.0;"/><text fill="#000000" font-family="sans-serif" font-size="13" lengthAdjust="spacingAndGlyphs" textLength="55" x="513.5" y="667.9951">ends with</text><text fill="#000000" font-family="sans-serif" font-size="13" lengthAdjust="spacingAndGlyphs" textLength="42" x="656.7094" y="686.7451">0..1 (+)</text><!--MD5=[fad1075d3a56c3a40b51ec3a35f08a0e]
link -978027984 to 1188248618--><path codeLine="84" d="M385.28,677.63 C410.47,683.62 450.28,692.8 485,699.5 C563.7,714.69 658.09,728.76 698.74,734.62 " fill="none" id="-978027984-to-1188248618" style="stroke:#000000;stroke-width:1.0;"/><polygon fill="#000000" points="703.89,735.36,695.5546,730.1139,698.9414,734.6449,694.4104,738.0317,703.89,735.36" style="stroke:#000000;stroke-width:1.0;"/><text fill="#000000" font-family="sans-serif" font-size="13" lengthAdjust="spacingAndGlyphs" textLength="60" x="511" y="695.9951">starts with</text><text fill="#000000" font-family="sans-serif" font-size="13" lengthAdjust="spacingAndGlyphs" textLength="42" x="653.7722" y="750.137">0..1 (+)</text><!--MD5=[8333f8ea9d3f5a6f6829b7cda462d192]
link -821319702 to -843567371--><path codeLine="85" d="M414.53,304.3 C468.25,293.41 549.03,269.03 597,216.5 C617.67,193.87 596.3,173.11 617,150.5 C624.49,142.32 633.83,135.74 643.8,130.46 " fill="none" id="-821319702-to--843567371" style="stroke:#999999;stroke-width:1.0;"/><polygon fill="#999999" points="648.42,128.12,638.5837,128.6175,643.9594,130.3789,642.198,135.7546,648.42,128.12" style="stroke:#999999;stroke-width:1.0;"/><text fill="#999999" font-family="sans-serif" font-size="13" lengthAdjust="spacingAndGlyphs" textLength="46" x="518" y="212.9951">has role</text><text fill="#999999" font-family="sans-serif" font-size="13" lengthAdjust="spacingAndGlyphs" textLength="20" x="624.1729" y="152.0783">1..*</text><!--MD5=[3266aa9236c877e34183124c38bee5d1]
link -821319702 to -843563681--><path codeLine="86" d="M414.72,331.78 C467.24,346.48 545.92,358.07 597,317.5 C627.73,293.1 591.46,261.3 617,231.5 C623.08,224.41 630.56,218.53 638.69,213.66 " fill="none" id="-821319702-to--843563681" style="stroke:#999999;stroke-width:1.0;"/><polygon fill="#999999" points="643.26,211.06,633.4595,212.0349,638.9144,213.533,637.4163,218.9879,643.26,211.06" style="stroke:#999999;stroke-width:1.0;"/><text fill="#999999" font-family="sans-serif" font-size="13" lengthAdjust="spacingAndGlyphs" textLength="110" x="486" y="313.9951">has contextual role</text><text fill="#999999" font-family="sans-serif" font-size="13" lengthAdjust="spacingAndGlyphs" textLength="20" x="597.7801" y="232.9308">1..*</text><!--MD5=[f6dd225486d93a6445825732bcc6bb0f]
link 177287031 to -233011503--><path codeLine="87" d="M93.1,432.43 C128.94,412.96 194.02,373.13 233,322.5 C247.6,303.53 238.85,291.8 253,272.5 C271.28,247.56 298.42,225.58 320.52,210.09 " fill="none" id="177287031-to--233011503" style="stroke:#008000;stroke-width:2.0;"/><polygon fill="#008000" points="324.87,207.08,315.1918,208.9054,320.7565,209.9223,319.7395,215.487,324.87,207.08" style="stroke:#008000;stroke-width:2.0;"/><text fill="#008000" font-family="sans-serif" font-size="13" lengthAdjust="spacingAndGlyphs" textLength="85" x="147" y="318.9951">has participant</text><text fill="#008000" font-family="sans-serif" font-size="13" lengthAdjust="spacingAndGlyphs" textLength="27" x="283.8787" y="228.9567">1 (+)</text><!--MD5=[b1296aa673f4167b3653c8df01292b75]
link 177287031 to -821319702--><path codeLine="88" d="M117.09,457.89 C151.15,463.85 196.61,466.64 233,450.5 C284.97,427.46 324.52,370.95 344.2,337.83 " fill="none" id="177287031-to--821319702" style="stroke:#008000;stroke-width:2.0;"/><polygon fill="#008000" points="346.95,333.12,338.9482,338.8621,344.4218,337.4337,345.8501,342.9073,346.95,333.12" style="stroke:#008000;stroke-width:2.0;"/><text fill="#008000" font-family="sans-serif" font-size="13" lengthAdjust="spacingAndGlyphs" textLength="85" x="147" y="446.9951">has participant</text><text fill="#008000" font-family="sans-serif" font-size="13" lengthAdjust="spacingAndGlyphs" textLength="27" x="312.4447" y="355.0085">1 (+)</text><!--MD5=[effb24305cbd8356951b1a81933ed403]
link 400355864 to 2080316243--><path codeLine="89" d="M453.66,558.17 C464.21,560.44 474.82,562.6 485,564.5 C549.41,576.49 624.51,586.36 671.9,592.09 " fill="none" id="400355864-to-2080316243" style="stroke:#000000;stroke-width:1.0;"/><polygon fill="#000000" points="676.97,592.7,668.5159,587.6475,672.0062,592.0992,667.5546,595.5896,676.97,592.7" style="stroke:#000000;stroke-width:1.0;"/><text fill="#000000" font-family="sans-serif" font-size="13" lengthAdjust="spacingAndGlyphs" textLength="99" x="491.5" y="560.9951">has quantity kind</text><text fill="#000000" font-family="sans-serif" font-size="13" lengthAdjust="spacingAndGlyphs" textLength="5" x="663.86" y="606.7568">*</text><!--MD5=[b1269acbfc1e3095210ebcf0c5bb1a0a]
@startuml 
left to right direction
hide circle
hide empty members
skinparam ClassStereotypeFontColor blue
skinparam nodesep 40
skinparam ranksep 40
skinparam ClassFontSize 13
skinparam Shadowing false
class "person (...)" as -233011503 <<organizational entity, object, human>> #EEE;line:green {
}
class "information process" as 1188159182  #line:black {
}
class "end" as 1188247841  #line:black {
}
class "start" as 1188248618  #line:black {
}
class "accomplishment" as 1188248766 <<event>> #line:black {
}
class "state" as 1188248769  #line:black {
}
class "activity" as 1188251493  #line:black {
}
class "file" as 1482878952 <<representation form>> #line:black {
}
class "timebase" as 1482903159 <<description>> #line:black {
}
class "plan specification" as 1482907681 <<specification>> #line:black {
}
class "agent role" as -843567371 <<general agent role, role>> #line:black {
}
class "software agent role" as -843563681 <<processing role, general agent role>> #line:black {
}
class "continuant" as -978028018 <<entity>> #line:black {
}
class "occurrent" as -978028017 <<entity>> #line:black {
}
class "process" as -978027984  #line:black {
}
class "process boundary" as -978027922  #line:black {
}
class "material entity" as -978027896 <<independent continuant>> #line:black {
}
class "software (...)" as -821319702 <<plan specification>> #EEE;line:green {
}
class "information content entity" as 310781973 <<generically dependent continuant>> #line:black {
}
class "planned process" as 177287031  #line:black {
}
class "quantity  kind" as 2080316243 <<classification>> #line:black {
}
class "unit" as 400355864 <<quality quantification facet>> #line:black {
{field}+ <color:royalBlue>conversionMultiplier</color>  double  <color:green>[0..1]</color>
{field}+ <color:royalBlue>conversionOffset</color>  double  <color:green>[0..1]</color>
{field}+ <color:royalBlue>description</color>  string  <color:green>[0..1]</color>
{method}+ <color:royalBlue>symbol</color>  string  <color:green>[1]</color>
{field}+ <color:royalBlue>symbol</color>  string  <color:green>[0..1]</color>
}
"-233011503" - -|> "-978027896" #line:99F
"1188159182" - -|> "-978027984" #blue
"1188247841" - -|> "-978027922" #blue
"1188248618" - -|> "-978027922" #blue
"1188248766" - -|> "-978027984" #line:99F
"1188248769" - -|> "-978027984" #blue
"1188251493" - -|> "-978027984" #blue
"1482878952" - -|> "310781973" #line:99F
"1482903159" - -|> "310781973" #line:99F
"1482907681" - -|> "310781973" #line:99F
"-843567371" - -|> "-978028018" #line:99F
"-843563681" - -|> "-978028018" #line:99F
"-843563681" - -|> "310781973" #line:99F
"-978027984" - -|> "-978028017" #blue
"-978027922" - -|> "-978028017" #blue
"-978027896" - -|> "-978028018" #line:99F
"-821319702" - -|> "1482907681" #line:99F
"310781973" - -|> "-978028018" #line:99F
"177287031" - -|> "-978027984" #blue
"2080316243" - -|> "310781973" #line:99F
"400355864" - -|> "310781973" #line:99F
"-233011503" - -> "1..*" "-843567371" #text:999;line:999 : has role
"-233011503" - -> "1..*" "-843563681" #text:999;line:999 : has contextual role
"1188159182" - -> "1 (+)" "-233011503" #line:green;text:green;line.bold : has participant
"1188159182" - -> "1 (+)" "-821319702" #line:green;text:green;line.bold : has participant
"-978027984" - -> "0..1 (+)" "1188247841" #black : ends with
"-978027984" - -> "0..1 (+)" "1188248618" #black : starts with
"-821319702" - -> "1..*" "-843567371" #text:999;line:999 : has role
"-821319702" - -> "1..*" "-843563681" #text:999;line:999 : has contextual role
"177287031" - -> "1 (+)" "-233011503" #line:green;text:green;line.bold : has participant
"177287031" - -> "1 (+)" "-821319702" #line:green;text:green;line.bold : has participant
"400355864" - -> "*" "2080316243" #black : has quantity kind
@enduml

PlantUML version 1.2020.26(Mon Dec 21 18:45:07 CET 2020)
(GPL source distribution)
Java Runtime: Java(TM) SE Runtime Environment
JVM: Java HotSpot(TM) 64-Bit Server VM
Default Encoding: Cp1252
Language: en
Country: US
--></g></svg>